<svg width="12px" height="12px" viewBox="0 0 12 12" version="1.1"
    xmlns="http://www.w3.org/2000/svg" xmlns:xlink="http://www.w3.org/1999/xlink">
    <g id="SVG-Icons" stroke="none" stroke-width="1" fill="#ff4d30" fillRule="evenodd">
        <g id="Artboard" fill="#ff4d30" fill-rule="nonzero">
            <path
                d="M11.9496327,4.51260504 C12.0629591,4.86554622 11.9748164,5.14285714 11.6977964,5.35714286 L8.83945435,7.52521008 L9.93494229,11.0546218 C10.0734523,11.5462185 9.70828961,12 9.25498426,12 C9.10388248,12 8.96537251,11.9495798 8.83945435,11.8487395 L5.99370409,9.68067227 L3.14795383,11.8487395 C2.83147857,12.0634189 2.4031726,11.9974564 2.16579224,11.697479 C2.01575944,11.5184577 1.97698825,11.2710317 2.06505771,11.0546218 L3.14795383,7.55042017 L0.289611752,5.35714286 C0.0251836306,5.14285714 -0.0629590766,4.86554622 0.0503672613,4.51260504 C0.151101784,4.21008403 0.415529906,4.00840336 0.705141658,4.00840336 L4.23084995,4.00840336 L5.32633788,0.491596639 C5.41448059,0.201680672 5.67890871,0 5.98111228,0 C6.29590766,0 6.5729276,0.214285714 6.6610703,0.516806723 L7.75655824,4.00840336 L11.2822665,4.00840336 C11.5844701,4.00840336 11.8488982,4.21008403 11.9496327,4.51260504 Z"
                id="Path"></path>
        </g>
    </g>
</svg>